# xmcd
#
# Track frame offsets:
#	150
#	10979
#	25785
#	42231
#	59592
#	74676
#	85798
#	102932
#	117902
#	130007
#	148853
#	161993
#	176699
#	190567
#	207824
#	224129
#	238148
#	257458
#	271837
#	288252
#
# Disc length: 3976 seconds
#
# Revision: 0
# Processed by: cddbd v1.5.1PL0 Copyright (c) Steve Scherf et al.
# Submitted via: audiograbber 1.83.01
#
DISCID=2d0f8614
DTITLE=Coleção Saudade Sertaneja - Coleção Saudade Sertaneja Vol. 02
DYEAR=1900
DGENRE=
TTITLE0=Trio Da Vitória - Vivendo Longe Do Meu Bem
TTITLE1=Belmonte and Amaraí - Pombinha Mensageira
TTITLE2=Moreno and Moreninho - João Boiadeiro
TTITLE3=Silveira and Silveirinha - Hoje Está Fazendo Um Ano
TTITLE4=Zilo and Zalo - Caminheiro
TTITLE5=André and Andrade - Cama Fria
TTITLE6=Léo Canhoto and Robertinho - O último Julgamento
TTITLE7=Creone and Barrerito - Dormindo E Sonhando
TTITLE8=Duo Ciriema - Não Beba Mais Não
TTITLE9=Os Filhos De Goiás - Barquinha De Ouro
TTITLE10=Tião Carreiro and Pardinho - Navalha Na Carne
TTITLE11=Nicanor and Palmeri - Amor Em Segredo
TTITLE12=Silveira and Silveirinha - Coração Apaixonado
TTITLE13=Palmeri and Biá - Couro De Boi
TTITLE14=Lourenço and Lourival - Condenado Por Amor
TTITLE15=Abel and Caim - Velhas Cartas
TTITLE16=Liu and Léu - A Sementinha
TTITLE17=Palmeri and Biá - Disco Voador
TTITLE18=Tião Carreiro and Pardinho - Lá Ionde Eu Moro
TTITLE19=Zé Tapera and Teodoro - Tchau Amor
EXTD=
EXTT0=
EXTT1=
EXTT2=
EXTT3=
EXTT4=
EXTT5=
EXTT6=
EXTT7=
EXTT8=
EXTT9=
EXTT10=
EXTT11=
EXTT12=
EXTT13=
EXTT14=
EXTT15=
EXTT16=
EXTT17=
EXTT18=
EXTT19=
PLAYORDER=
